<svg width="35" height="35" viewBox="0 0 35 35" fill="none" xmlns="http://www.w3.org/2000/svg">
<path opacity="0.3" d="M18.9583 5.8335H8.75V29.1668H26.25V13.1252H18.9583V5.8335ZM23.3333 26.2502H11.6667V23.3335H23.3333V26.2502ZM23.3333 17.5002V20.4168H11.6667V17.5002H23.3333Z" fill="#022869"/>
<path d="M11.6673 23.3332H23.334V26.2498H11.6673V23.3332ZM11.6673 17.4998H23.334V20.4165H11.6673V17.4998ZM20.4173 2.9165H8.75065C7.14648 2.9165 5.83398 4.229 5.83398 5.83317V29.1665C5.83398 30.7707 7.1319 32.0832 8.73607 32.0832H26.2506C27.8548 32.0832 29.1673 30.7707 29.1673 29.1665V11.6665L20.4173 2.9165ZM26.2506 29.1665H8.75065V5.83317H18.959V13.1248H26.2506V29.1665Z" fill="#022869"/>
</svg>
