<svg width="23" height="22" viewBox="0 0 23 22" fill="none" xmlns="http://www.w3.org/2000/svg">
<path d="M11.6207 4.37973L11.2024 3.74069C10.8252 3.1644 10.4013 2.67696 9.93955 2.2825L9.93952 2.28248C9.03064 1.50593 8.01547 1.12305 6.90969 1.12305C5.41684 1.12305 4.0381 1.78055 3.02283 2.997L11.6207 4.37973ZM11.6207 4.37973L12.039 3.74072M11.6207 4.37973L12.039 3.74072M12.039 3.74072C12.4165 3.16422 12.8402 2.67692 13.3018 2.28245C14.2108 1.50591 15.226 1.12305 16.3318 1.12305C17.8246 1.12305 19.2032 1.78054 20.2185 2.99703C21.2255 4.20371 21.7961 5.87362 21.7961 7.71139C21.7961 9.57724 21.1723 11.3005 19.7787 13.1579L19.7787 13.158C18.5178 14.839 16.6965 16.5556 14.5354 18.5901L14.5353 18.5901L14.5113 18.6128C13.7826 19.299 12.956 20.0773 12.0984 20.9059L12.0981 20.9061C11.9587 21.041 11.7885 21.1077 11.6207 21.1077C11.4529 21.1077 11.2829 21.0411 11.143 20.9058L11.1427 20.9055M12.039 3.74072L11.1427 20.9055M11.1427 20.9055C10.2756 20.068 9.44086 19.282 8.70657 18.5907L8.36808 18.9502M11.1427 20.9055L8.36808 18.9502M8.36808 18.9502L8.70656 18.5906C6.5452 16.5559 4.72389 14.839 3.4629 13.1582C2.06933 11.3005 1.44531 9.57721 1.44531 7.71159C1.44531 5.87363 2.01598 4.20374 3.02279 2.99705L8.36808 18.9502Z" stroke="black"/>
</svg>
