<svg width="23" height="22" viewBox="0 0 23 22" fill="none" xmlns="http://www.w3.org/2000/svg">
<path d="M20.6024 2.78604C19.4971 1.46177 17.9806 0.732422 16.3318 0.732422C15.0993 0.732422 13.9706 1.16287 12.977 2.01171C12.4756 2.44017 12.0213 2.96438 11.6207 3.57622C11.2203 2.96456 10.7659 2.44017 10.2643 2.01171C9.27083 1.16287 8.14212 0.732422 6.90969 0.732422C5.26088 0.732422 3.74416 1.46177 2.63892 2.78604C1.54688 4.09484 0.945312 5.88286 0.945312 7.82096C0.945312 9.81571 1.61823 11.6417 3.06293 13.5676C4.35533 15.2902 6.21282 17.039 8.36383 19.064C9.09833 19.7556 9.93087 20.5395 10.7953 21.3745C11.0237 21.5954 11.3168 21.7171 11.6207 21.7171C11.9245 21.7171 12.2177 21.5954 12.4458 21.3748C13.3103 20.5396 14.1433 19.7554 14.8781 19.0635C17.0288 17.0388 18.8863 15.2902 20.1787 13.5674C21.6234 11.6417 22.2961 9.81571 22.2961 7.82075C22.2961 5.88286 21.6946 4.09484 20.6024 2.78604Z" fill="#367AF5"/>
</svg>
