<svg width="39" height="39" viewBox="0 0 39 39" fill="none" xmlns="http://www.w3.org/2000/svg">
<path d="M36.6273 16.3548L21.2015 8.92785C22.0677 8.36676 22.6452 7.39679 22.6452 6.29032V4.94294C23.7277 4.66176 24.5323 3.68487 24.5323 2.51613C24.5323 1.12848 23.4038 0 22.0161 0C20.6285 0 19.5 1.12848 19.5 2.51613C19.5 3.68487 20.3045 4.66176 21.3871 4.94294V6.29032C21.3871 7.33074 20.5404 8.17742 19.5 8.17742C18.4596 8.17742 17.6129 7.33074 17.6129 6.29032V5.03226H16.3548V6.29032C16.3548 7.39679 16.9323 8.36676 17.7985 8.92785L2.37271 16.3548H0V39H4.40323H5.03226H33.9677H34.5968H39V16.3548H36.6273ZM20.7581 2.51613C20.7581 1.82231 21.3223 1.25806 22.0161 1.25806C22.71 1.25806 23.2742 1.82231 23.2742 2.51613C23.2742 3.20995 22.71 3.77419 22.0161 3.77419C21.3223 3.77419 20.7581 3.20995 20.7581 2.51613ZM3.77419 37.7419H3.14516V36.4839H1.8871V37.7419H1.25806V17.6129H1.8871V18.871H3.14516V17.6129H3.77419V37.7419ZM5.03226 18.871H6.29032V33.9677H5.03226V18.871ZM33.9677 37.7419H5.03226V35.2258H33.9677V37.7419ZM7.54839 33.9677V18.871H8.80645V33.9677H7.54839ZM10.0645 33.9677V18.871H11.3226V33.9677H10.0645ZM12.5806 33.9677V18.871H13.8387V33.9677H12.5806ZM15.0968 33.9677V18.871H16.3548V33.9677H15.0968ZM17.6129 33.9677V18.871H18.871V33.9677H17.6129ZM20.129 33.9677V18.871H21.3871V33.9677H20.129ZM22.6452 33.9677V18.871H23.9032V33.9677H22.6452ZM25.1613 33.9677V18.871H26.4194V33.9677H25.1613ZM27.6774 33.9677V18.871H28.9355V33.9677H27.6774ZM30.1935 33.9677V18.871H31.4516V33.9677H30.1935ZM33.9677 33.9677H32.7097V18.871H33.9677V33.9677ZM33.9677 17.6129H5.03226V16.4706L19.5 9.50468L33.9677 16.4706V17.6129ZM37.7419 37.7419H37.1129V36.4839H35.8548V37.7419H35.2258V17.6129H35.8548V18.871H37.1129V17.6129H37.7419V37.7419Z" fill="white"/>
<path d="M11.323 35.8547H7.54883V37.1128H11.323V35.8547Z" fill="white"/>
<path d="M31.4519 35.8547H27.6777V37.1128H31.4519V35.8547Z" fill="white"/>
</svg>
