<svg width="121" height="121" viewBox="0 0 121 121" fill="none" xmlns="http://www.w3.org/2000/svg">
<path d="M47.763 21.6526H85.9738C89.8363 21.6526 92.979 18.5102 92.979 14.6474C92.979 13.4213 92.6524 12.2092 92.0346 11.1426C91.5057 10.2297 90.3376 9.91798 89.4239 10.4466C88.511 10.9756 88.199 12.1444 88.7282 13.0574C89.0134 13.5501 89.158 14.0849 89.158 14.6474C89.158 16.4033 87.7297 17.8317 85.9738 17.8317H47.7633C46.0074 17.8317 44.579 16.4033 44.579 14.6474C44.579 12.8915 46.0071 11.4629 47.763 11.4629H76.471C77.1542 11.4629 77.785 11.0984 78.1263 10.5067C78.4673 9.91491 78.4666 9.18607 78.1241 8.59502C77.8389 8.10227 77.6945 7.56746 77.6945 7.005C77.6945 5.24908 79.1228 3.82072 80.8788 3.82072H113.994C115.75 3.82072 117.179 5.24908 117.179 7.005C117.179 8.76092 115.75 10.1893 113.994 10.1893H97.6914C96.6359 10.1893 95.7809 11.0448 95.7809 12.0998C95.7809 13.1547 96.6362 14.0102 97.6914 14.0102H113.994C117.857 14.0102 121 10.8678 121 7.005C121 3.14246 117.857 0 113.995 0H80.879C77.0164 0 73.8738 3.14246 73.8738 7.00524C73.8738 7.21817 73.8837 7.43063 73.9031 7.64214H47.763C43.9005 7.64214 40.7578 10.7846 40.7578 14.6474C40.7578 18.5102 43.9005 21.6526 47.763 21.6526Z" fill="black"/>
<path d="M116.542 78.9683H88.521C86.0629 78.9683 84.0631 80.9684 84.0631 83.4262V88.0114C84.0631 89.0666 84.9182 89.9219 85.9736 89.9219C87.029 89.9219 87.8841 89.0664 87.8841 88.0114V83.4262C87.8841 83.0752 88.1695 82.7893 88.521 82.7893H116.542C116.893 82.7893 117.179 83.075 117.179 83.4262V91.0683C117.179 91.4193 116.893 91.7052 116.542 91.7052H68.1419C65.6839 91.7052 63.6841 93.7053 63.6841 96.1631V117.179H52.221V108.9C52.221 106.442 50.2209 104.442 47.7631 104.442H36.9367V31.8421H88.4765C88.507 31.8429 88.5361 31.8429 88.5654 31.8421H96.8V58.8544C93.8629 59.688 91.7053 62.3939 91.7053 65.5948C91.7053 69.4576 94.8479 72.6 98.7105 72.6C102.573 72.6 105.716 69.4576 105.716 65.5948C105.716 64.5396 104.861 63.6843 103.805 63.6843C102.75 63.6843 101.895 64.5398 101.895 65.5948C101.895 67.3507 100.466 68.7791 98.7105 68.7791C96.9546 68.7791 95.5262 67.3507 95.5262 65.5948C95.5262 63.8388 96.9546 62.4105 98.7105 62.4105C99.7659 62.4105 100.621 61.555 100.621 60.5V31.8421H101.258C102.313 31.8421 103.168 30.9866 103.168 29.9317C103.168 28.8765 102.313 28.0212 101.258 28.0212H88.8575L76.1913 23.4154C75.1992 23.055 74.1035 23.5664 73.7427 24.5578C73.3823 25.5492 73.8934 26.6453 74.8851 27.0062L77.6761 28.021H28.021V1.91048C28.021 0.855271 27.1655 0 26.1105 0C25.0553 0 24.2 0.855508 24.2 1.91048V28.021H6.12091L21.18 10.8104C21.8745 10.0163 21.7942 8.80937 21.0001 8.11456C20.2061 7.42023 18.9994 7.50035 18.3043 8.29441L0.47952 28.6659C9.80403e-06 29.2073 -0.000226497 29.8683 9.83119e-06 29.9402V45.2157C9.83119e-06 47.6738 2.00006 49.6736 4.45787 49.6736H9.55263C12.0107 49.6736 14.0105 47.6735 14.0105 45.2157V31.8421H20.3788V42.6237C20.3781 42.6534 20.3781 42.683 20.3788 42.7128V53.3225C20.3781 53.3523 20.3781 53.3818 20.3788 53.4116V64.0213C20.3781 64.0511 20.3781 64.0806 20.3788 64.1104V74.7201C20.3781 74.7499 20.3781 74.7794 20.3788 74.8092V85.4189C20.3781 85.4487 20.3781 85.4782 20.3788 85.508V96.1177C20.3781 96.1475 20.3781 96.177 20.3788 96.2068V104.441H7.00525C4.5472 104.441 2.54739 106.441 2.54739 108.899V117.178H1.91049C0.855281 117.178 9.83119e-06 118.034 9.83119e-06 119.089C9.83119e-06 120.144 0.855518 121 1.91049 121H35.0262C36.0814 121 36.9367 120.144 36.9367 119.09C36.9367 118.034 36.0812 117.179 35.0262 117.179H6.36834V108.9C6.36834 108.549 6.65407 108.263 7.00525 108.263H47.7631C48.1141 108.263 48.4 108.549 48.4 108.9V117.179H42.6684C41.6131 117.179 40.7579 118.035 40.7579 119.09C40.7579 120.145 41.6134 121 42.6684 121H119.089C120.145 121 121 120.144 121 119.09C121 118.034 120.145 117.179 119.089 117.179H115.905V108.9C115.905 106.442 113.905 104.442 111.447 104.442H88.5845C87.5291 104.442 86.6741 105.298 86.6741 106.353C86.6741 107.408 87.5293 108.263 88.5845 108.263H111.447C111.798 108.263 112.084 108.549 112.084 108.9V117.179H67.5053V108.263H81.07C82.1255 108.263 82.9805 107.408 82.9805 106.353C82.9805 105.298 82.1255 104.442 81.07 104.442H67.5053V96.1633C67.5053 95.8124 67.7907 95.5264 68.1422 95.5264H101.895V100.812C101.895 101.867 102.75 102.723 103.805 102.723C104.861 102.723 105.716 101.867 105.716 100.812V95.5264H116.542C119 95.5264 121 93.5264 121 91.0686V83.4262C121 80.9684 119 78.9683 116.542 78.9683ZM10.1895 45.2157C10.1895 45.5667 9.90381 45.8526 9.55263 45.8526H4.45787C4.10692 45.8526 3.82096 45.5669 3.82096 45.2157V31.8421H10.1893V45.2157H10.1895ZM33.1157 104.442H24.2V97.5404L30.5355 95.4286C31.5366 95.0949 32.0778 94.0127 31.7441 93.0119C31.4104 92.0108 30.328 91.4696 29.3274 91.8033L24.2 93.5124V86.8414L30.5355 84.7295C31.5366 84.3958 32.0778 83.3137 31.7441 82.3129C31.4104 81.3115 30.328 80.771 29.3274 81.1043L24.2 82.8134V76.1423L30.5355 74.0305C31.5366 73.6968 32.0778 72.6147 31.7441 71.6138C31.4104 70.6127 30.328 70.0715 29.3274 70.4052L24.2 72.1143V65.4433L30.5355 63.3314C31.5366 62.9977 32.0778 61.9156 31.7441 60.9148C31.4104 59.9137 30.328 59.3727 29.3274 59.7062L24.2 61.4153V54.7442L30.5355 52.6324C31.5366 52.2987 32.0778 51.2166 31.7441 50.2157C31.4104 49.2144 30.328 48.6734 29.3274 49.0071L24.2 50.7163V44.0452L30.5355 41.9334C31.5366 41.5997 32.0778 40.5175 31.7441 39.5167C31.4104 38.5156 30.328 37.9749 29.3274 38.3081L24.2 40.0172V31.8417H33.1157V104.442Z" fill="black"/>
<path d="M31.8262 11.348L36.921 13.2008C37.1367 13.2793 37.357 13.3164 37.5739 13.3164C38.3545 13.3164 39.0874 12.8343 39.3696 12.0582C39.7302 11.0668 39.2188 9.97068 38.2272 9.60981L33.1324 7.757C32.1415 7.39684 31.0449 7.90778 30.684 8.89941C30.3232 9.89151 30.8348 10.9876 31.8262 11.348Z" fill="black"/>
</svg>
