<svg width="35" height="35" viewBox="0 0 35 35" fill="none" xmlns="http://www.w3.org/2000/svg">
<path d="M24.0784 14.4508L19.3627 7.44824L14.647 14.4508H17.0692V32.6233H21.6561V14.4508H24.0784Z" fill="#367AF5"/>
<path d="M34.8307 22.8319L30.115 15.8294C29.9305 15.5554 29.6218 15.3912 29.2914 15.3912C28.9611 15.3912 28.6524 15.5554 28.4679 15.8294L23.7522 22.8319C23.5473 23.1364 23.5268 23.529 23.6993 23.853C23.8718 24.177 24.2089 24.3795 24.5758 24.3795H26.0051V31.6304H22.649V15.4436H24.0784C24.4453 15.4436 24.7824 15.2412 24.9549 14.9172C25.1272 14.5931 25.1069 14.2005 24.902 13.8961L20.1862 6.89349C20.0017 6.61943 19.693 6.45523 19.3627 6.45523C19.0323 6.45523 18.7236 6.61943 18.5391 6.89349L13.8234 13.8961C13.6185 14.2005 13.598 14.5931 13.7705 14.9172C13.943 15.2411 14.2801 15.4436 14.647 15.4436H16.0763V31.6303H12.7202V27.3599H14.1496C14.6978 27.3599 15.1424 26.9153 15.1424 26.3671C15.1424 25.8188 14.6978 25.3742 14.1496 25.3742H11.7274C11.1791 25.3742 10.7345 25.8188 10.7345 26.3671V31.6303H8.13354V26.3671C8.13354 25.8188 7.68893 25.3742 7.14068 25.3742H6.5841L9.43414 21.1419L10.8103 23.1855C11.1167 23.6404 11.7338 23.7605 12.1885 23.4545C12.6433 23.1482 12.7637 22.5311 12.4575 22.0763L10.2578 18.8099C10.0733 18.5358 9.76452 18.3716 9.43421 18.3716C9.1039 18.3716 8.79512 18.5358 8.61061 18.8099L3.89498 25.8126C3.69004 26.117 3.6696 26.5097 3.84207 26.8337C4.01454 27.1577 4.35162 27.3601 4.71857 27.3601H6.1479V31.6306H1.9857V2.37664C1.9857 1.8284 1.54109 1.38379 0.992852 1.38379C0.444609 1.38379 0 1.8284 0 2.37664V32.6233C0 33.1715 0.444609 33.6161 0.992852 33.6161H31.2395H31.5849C32.1331 33.6161 32.5778 33.1715 32.5778 32.6233C32.5778 32.075 32.1331 31.6304 31.5849 31.6304H31.2395H27.9908V23.3866C27.9908 22.8384 27.5462 22.3938 26.998 22.3938H26.4414L29.2914 18.1616L32.1416 22.3938H31.585C31.0367 22.3938 30.5921 22.8384 30.5921 23.3866V28.7194C30.5921 29.2676 31.0367 29.7123 31.585 29.7123C32.1332 29.7123 32.5778 29.2676 32.5778 28.7194V24.3795H34.0071C34.3741 24.3795 34.7112 24.1771 34.8837 23.853C35.056 23.529 35.0356 23.1364 34.8307 22.8319ZM18.0622 31.6303V14.4508C18.0622 13.9025 17.6176 13.4579 17.0693 13.4579H16.5128L19.3628 9.2257L22.2129 13.4579H21.6562C21.108 13.4579 20.6634 13.9025 20.6634 14.4508V31.6303H18.0622Z" fill="#022869"/>
</svg>
