<svg width="34" height="34" viewBox="0 0 34 34" fill="none" xmlns="http://www.w3.org/2000/svg">
<path d="M14.3174 19.7038C14.4465 21.0484 14.6654 22.0476 14.9666 22.7069C15.2715 23.3641 15.8129 23.6919 16.5943 23.6919C16.7404 23.6919 16.8711 23.669 17.0007 23.6425C17.1336 23.669 17.2637 23.6919 17.4109 23.6919C18.1902 23.6919 18.7332 23.3641 19.0365 22.7069C19.3393 22.0476 19.5545 21.0484 19.6862 19.7038L20.38 9.32208C20.5091 7.29855 20.575 5.84664 20.575 4.9653C20.575 3.76573 20.2621 2.82967 19.6342 2.15764C19.0041 1.48561 18.1764 1.15039 17.1511 1.15039C17.0964 1.15039 17.0555 1.16261 17.0018 1.16473C16.9508 1.16261 16.9088 1.15039 16.8557 1.15039C15.8283 1.15039 15.0022 1.48561 14.3732 2.15764C13.7447 2.83073 13.4297 3.76733 13.4297 4.96583C13.4297 5.84717 13.494 7.29908 13.6252 9.32261L14.3174 19.7038ZM17.0278 27.4866C16.0323 27.4866 15.1865 27.8005 14.4842 28.4285C13.7824 29.057 13.4307 29.8198 13.4307 30.7155C13.4307 31.7265 13.7867 32.5223 14.4932 33.1003C15.203 33.6783 16.0307 33.9673 16.9768 33.9673C17.94 33.9673 18.7799 33.6825 19.4982 33.1115C20.2153 32.542 20.5739 31.7419 20.5739 30.7166C20.5739 29.8209 20.2307 29.058 19.5444 28.4295C18.858 27.8005 18.0192 27.4866 17.0262 27.4866" fill="white"/>
</svg>
