<svg width="28" height="21" viewBox="0 0 28 21" fill="none" xmlns="http://www.w3.org/2000/svg">
<path d="M0.185431 11.331C0.0633269 11.0716 0 10.7884 0 10.5016C0 10.2148 0.0633269 9.93157 0.185431 9.67224C3.22964 3.23696 7.82808 0 14 0C7.82808 0 3.22964 3.23696 0.185431 9.67224C0.0633269 9.93157 0 10.2148 0 10.5016C0 10.7884 0.0633269 11.0716 0.185431 11.331C3.22964 17.763 7.83129 21 14 21C7.83129 21 3.22964 17.763 0.185431 11.331Z" fill="#367AF5" fill-opacity="0.15"/>
<path d="M13.9986 2.31934C8.81891 2.31934 5.02649 4.954 2.35156 10.5003C5.02649 16.0466 8.81891 18.6813 13.9986 18.6813C19.1814 18.6813 22.9739 16.0466 25.6456 10.5003C22.9706 4.954 19.1782 2.31934 13.9986 2.31934ZM13.8701 16.169C10.7488 16.169 8.21842 13.631 8.21842 10.5003C8.21842 7.36964 10.7488 4.83161 13.8701 4.83161C16.9914 4.83161 19.5218 7.36964 19.5218 10.5003C19.5218 13.631 16.9914 16.169 13.8701 16.169Z" fill="#367AF5" fill-opacity="0.15"/>
<path d="M27.8146 9.66902C24.7703 3.23696 20.1687 0 14 0C7.82808 0 3.22964 3.23696 0.185431 9.67224C0.0633269 9.93157 0 10.2148 0 10.5016C0 10.7884 0.0633269 11.0716 0.185431 11.331C3.22964 17.763 7.83129 21 14 21C20.1719 21 24.7703 17.763 27.8146 11.3278C28.0618 10.806 28.0618 10.2005 27.8146 9.66902ZM14 18.681C8.82033 18.681 5.02791 16.0463 2.35299 10.5C5.02791 4.95368 8.82033 2.31902 14 2.31902C19.1796 2.31902 22.9721 4.95368 25.647 10.5C22.9753 16.0463 19.1829 18.681 14 18.681Z" fill="#367AF5"/>
<path d="M13.8705 4.83154C10.7492 4.83154 8.21875 7.36958 8.21875 10.5003C8.21875 13.6309 10.7492 16.169 13.8705 16.169C16.9917 16.169 19.5222 13.6309 19.5222 10.5003C19.5222 7.36958 16.9917 4.83154 13.8705 4.83154ZM13.8705 14.1076C11.8827 14.1076 10.2739 12.494 10.2739 10.5003C10.2739 8.50654 11.8827 6.89289 13.8705 6.89289C15.8582 6.89289 17.467 8.50654 17.467 10.5003C17.467 12.494 15.8582 14.1076 13.8705 14.1076Z" fill="#367AF5"/>
</svg>
