<svg width="20" height="20" viewBox="0 0 20 20" fill="none" xmlns="http://www.w3.org/2000/svg">
<path d="M17.5 15.8334H7.5M2.5 4.16675H5.83333H2.5ZM17.5 4.16675H9.16667H17.5ZM2.5 10.0001H12.5H2.5ZM17.5 10.0001H15.8333H17.5ZM2.5 15.8334H4.16667H2.5Z" stroke="white" stroke-linecap="round"/>
<path d="M7.4987 5.83333C8.41917 5.83333 9.16536 5.08714 9.16536 4.16667C9.16536 3.24619 8.41917 2.5 7.4987 2.5C6.57822 2.5 5.83203 3.24619 5.83203 4.16667C5.83203 5.08714 6.57822 5.83333 7.4987 5.83333Z" stroke="white" stroke-linecap="round"/>
<path d="M14.1667 11.6666C15.0871 11.6666 15.8333 10.9204 15.8333 9.99992C15.8333 9.07944 15.0871 8.33325 14.1667 8.33325C13.2462 8.33325 12.5 9.07944 12.5 9.99992C12.5 10.9204 13.2462 11.6666 14.1667 11.6666Z" stroke="white" stroke-linecap="round"/>
<path d="M5.83464 17.4998C6.75511 17.4998 7.5013 16.7536 7.5013 15.8332C7.5013 14.9127 6.75511 14.1665 5.83464 14.1665C4.91416 14.1665 4.16797 14.9127 4.16797 15.8332C4.16797 16.7536 4.91416 17.4998 5.83464 17.4998Z" stroke="white" stroke-linecap="round"/>
</svg>
