<svg width="49" height="49" viewBox="0 0 49 49" fill="none" xmlns="http://www.w3.org/2000/svg">
<path d="M48.2181 44.3086H0.781915C0.350089 44.3086 0 44.6587 0 45.0905C0 45.5223 0.350089 45.8724 0.781915 45.8724H48.2181C48.65 45.8724 49 45.5223 49 45.0905C49 44.6587 48.65 44.3086 48.2181 44.3086Z" fill="#001F4D"/>
<path d="M48.2181 47.4355H0.781915C0.350089 47.4355 0 47.7856 0 48.2175C0 48.6493 0.350089 48.9994 0.781915 48.9994H48.2181C48.65 48.9994 49 48.6493 49 48.2175C49 47.7856 48.65 47.4355 48.2181 47.4355Z" fill="#001F4D"/>
<path d="M48.2181 3.12766H45.6117V2.34574C45.6117 1.05225 44.5593 0 43.266 0C41.9726 0 40.9202 1.05225 40.9202 2.34574V3.12766H33.1011V2.34574C33.1011 1.05225 32.0487 0 30.7553 0C29.4619 0 28.4096 1.05225 28.4096 2.34574V3.12766H20.5904V2.34574C20.5904 1.05225 19.5382 0 18.2447 0C16.9512 0 15.8989 1.05225 15.8989 2.34574V3.12766H8.07979V2.34574C8.07979 1.05225 7.02754 0 5.73404 0C4.44055 0 3.3883 1.05225 3.3883 2.34574V3.12766H0.781915C0.350089 3.12766 0 3.47775 0 3.90957V41.9628C0 42.3946 0.350089 42.7447 0.781915 42.7447H48.2181C48.65 42.7447 49 42.3946 49 41.9628V3.90957C49 3.47775 48.65 3.12766 48.2181 3.12766ZM42.484 2.34574C42.484 1.91454 42.8348 1.56383 43.266 1.56383C43.6972 1.56383 44.0479 1.91454 44.0479 2.34574V5.4734C44.0479 5.9046 43.6972 6.25532 43.266 6.25532C42.8348 6.25532 42.484 5.9046 42.484 5.4734V2.34574ZM29.9734 2.34574C29.9734 1.91454 30.3241 1.56383 30.7553 1.56383C31.1865 1.56383 31.5372 1.91454 31.5372 2.34574V5.4734C31.5372 5.9046 31.1865 6.25532 30.7553 6.25532C30.3241 6.25532 29.9734 5.9046 29.9734 5.4734V2.34574ZM17.4628 2.34574C17.4628 1.91454 17.8135 1.56383 18.2447 1.56383C18.6759 1.56383 19.0266 1.91454 19.0266 2.34574V5.4734C19.0266 5.9046 18.6759 6.25532 18.2447 6.25532C17.8135 6.25532 17.4628 5.9046 17.4628 5.4734V2.34574ZM4.95213 2.34574C4.95213 1.91454 5.30284 1.56383 5.73404 1.56383C6.16524 1.56383 6.51596 1.91454 6.51596 2.34574V5.4734C6.51596 5.9046 6.16524 6.25532 5.73404 6.25532C5.30284 6.25532 4.95213 5.9046 4.95213 5.4734V2.34574ZM3.3883 4.69149V5.4734C3.3883 6.7669 4.44055 7.81915 5.73404 7.81915C7.02754 7.81915 8.07979 6.7669 8.07979 5.4734V4.69149H15.8989V5.4734C15.8989 6.7669 16.9512 7.81915 18.2447 7.81915C19.5382 7.81915 20.5904 6.7669 20.5904 5.4734V4.69149H28.4096V5.4734C28.4096 6.7669 29.4619 7.81915 30.7553 7.81915C32.0487 7.81915 33.1011 6.7669 33.1011 5.4734V4.69149H40.9202V5.4734C40.9202 6.7669 41.9726 7.81915 43.266 7.81915C44.5593 7.81915 45.6117 6.7669 45.6117 5.4734V4.69149H47.4362V12.7504H1.56383V4.69149H3.3883ZM1.56383 41.1809V14.3143H47.4362V41.1809H1.56383Z" fill="#001F4D"/>
<path d="M42.9564 23.6445H39.8288C39.3969 23.6445 39.0469 23.9946 39.0469 24.4264C39.0469 24.8583 39.3969 25.2084 39.8288 25.2084H42.9564C43.3884 25.2084 43.7384 24.8583 43.7384 24.4264C43.7384 23.9946 43.3884 23.6445 42.9564 23.6445Z" fill="#001F4D"/>
<path d="M34.5111 23.6445H31.3835C30.9515 23.6445 30.6016 23.9946 30.6016 24.4264C30.6016 24.8583 30.9515 25.2084 31.3835 25.2084H34.5111C34.9431 25.2084 35.2931 24.8583 35.2931 24.4264C35.2931 23.9946 34.9431 23.6445 34.5111 23.6445Z" fill="#001F4D"/>
<path d="M26.0658 23.6445H22.9382C22.5063 23.6445 22.1562 23.9946 22.1562 24.4264C22.1562 24.8583 22.5063 25.2084 22.9382 25.2084H26.0658C26.4978 25.2084 26.8477 24.8583 26.8477 24.4264C26.8477 23.9946 26.4978 23.6445 26.0658 23.6445Z" fill="#001F4D"/>
<path d="M17.6205 23.6445H14.4929C14.061 23.6445 13.7109 23.9946 13.7109 24.4264C13.7109 24.8583 14.061 25.2084 14.4929 25.2084H17.6205C18.0523 25.2084 18.4024 24.8583 18.4024 24.4264C18.4024 23.9946 18.0523 23.6445 17.6205 23.6445Z" fill="#001F4D"/>
<path d="M9.1752 23.6445H6.04754C5.61571 23.6445 5.26562 23.9946 5.26562 24.4264C5.26562 24.8583 5.61571 25.2084 6.04754 25.2084H9.1752C9.60703 25.2084 9.95711 24.8583 9.95711 24.4264C9.95711 23.9946 9.60703 23.6445 9.1752 23.6445Z" fill="#001F4D"/>
<path d="M34.5111 29.2754H31.3835C30.9515 29.2754 30.6016 29.6255 30.6016 30.0573C30.6016 30.4891 30.9515 30.8392 31.3835 30.8392H34.5111C34.9431 30.8392 35.2931 30.4891 35.2931 30.0573C35.2931 29.6255 34.9431 29.2754 34.5111 29.2754Z" fill="#001F4D"/>
<path d="M26.0658 29.2754H22.9382C22.5063 29.2754 22.1562 29.6255 22.1562 30.0573C22.1562 30.4891 22.5063 30.8392 22.9382 30.8392H26.0658C26.4978 30.8392 26.8477 30.4891 26.8477 30.0573C26.8477 29.6255 26.4978 29.2754 26.0658 29.2754Z" fill="#001F4D"/>
<path d="M17.6205 29.2754H14.4929C14.061 29.2754 13.7109 29.6255 13.7109 30.0573C13.7109 30.4891 14.061 30.8392 14.4929 30.8392H17.6205C18.0523 30.8392 18.4024 30.4891 18.4024 30.0573C18.4024 29.6255 18.0523 29.2754 17.6205 29.2754Z" fill="#001F4D"/>
<path d="M9.1752 29.2754H6.04754C5.61571 29.2754 5.26562 29.6255 5.26562 30.0573C5.26562 30.4891 5.61571 30.8392 6.04754 30.8392H9.1752C9.60703 30.8392 9.95711 30.4891 9.95711 30.0573C9.95711 29.6255 9.60703 29.2754 9.1752 29.2754Z" fill="#001F4D"/>
<path d="M34.5111 34.9043H31.3835C30.9515 34.9043 30.6016 35.2544 30.6016 35.6862C30.6016 36.118 30.9515 36.4681 31.3835 36.4681H34.5111C34.9431 36.4681 35.2931 36.118 35.2931 35.6862C35.2931 35.2544 34.9431 34.9043 34.5111 34.9043Z" fill="#001F4D"/>
<path d="M42.9564 29.2754H39.8288C39.3969 29.2754 39.0469 29.6255 39.0469 30.0573C39.0469 30.4891 39.3969 30.8392 39.8288 30.8392H42.9564C43.3884 30.8392 43.7384 30.4891 43.7384 30.0573C43.7384 29.6255 43.3884 29.2754 42.9564 29.2754Z" fill="#001F4D"/>
<path d="M42.9564 34.9043H39.8288C39.3969 34.9043 39.0469 35.2544 39.0469 35.6862C39.0469 36.118 39.3969 36.4681 39.8288 36.4681H42.9564C43.3884 36.4681 43.7384 36.118 43.7384 35.6862C43.7384 35.2544 43.3884 34.9043 42.9564 34.9043Z" fill="#001F4D"/>
<path d="M26.0658 34.9043H22.9382C22.5063 34.9043 22.1562 35.2544 22.1562 35.6862C22.1562 36.118 22.5063 36.4681 22.9382 36.4681H26.0658C26.4978 36.4681 26.8477 36.118 26.8477 35.6862C26.8477 35.2544 26.4978 34.9043 26.0658 34.9043Z" fill="#001F4D"/>
<path d="M17.6205 34.9043H14.4929C14.061 34.9043 13.7109 35.2544 13.7109 35.6862C13.7109 36.118 14.061 36.4681 14.4929 36.4681H17.6205C18.0523 36.4681 18.4024 36.118 18.4024 35.6862C18.4024 35.2544 18.0523 34.9043 17.6205 34.9043Z" fill="#001F4D"/>
<path d="M9.1752 34.9043H6.04754C5.61571 34.9043 5.26562 35.2544 5.26562 35.6862C5.26562 36.118 5.61571 36.4681 6.04754 36.4681H9.1752C9.60703 36.4681 9.95711 36.118 9.95711 35.6862C9.95711 35.2544 9.60703 34.9043 9.1752 34.9043Z" fill="#001F4D"/>
<path d="M42.9564 18.0156H39.8288C39.3969 18.0156 39.0469 18.3657 39.0469 18.7975C39.0469 19.2294 39.3969 19.5795 39.8288 19.5795H42.9564C43.3884 19.5795 43.7384 19.2294 43.7384 18.7975C43.7384 18.3657 43.3884 18.0156 42.9564 18.0156Z" fill="#001F4D"/>
<path d="M34.5111 18.0156H31.3835C30.9515 18.0156 30.6016 18.3657 30.6016 18.7975C30.6016 19.2294 30.9515 19.5795 31.3835 19.5795H34.5111C34.9431 19.5795 35.2931 19.2294 35.2931 18.7975C35.2931 18.3657 34.9431 18.0156 34.5111 18.0156Z" fill="#001F4D"/>
<path d="M26.0658 18.0156H22.9382C22.5063 18.0156 22.1562 18.3657 22.1562 18.7975C22.1562 19.2294 22.5063 19.5795 22.9382 19.5795H26.0658C26.4978 19.5795 26.8477 19.2294 26.8477 18.7975C26.8477 18.3657 26.4978 18.0156 26.0658 18.0156Z" fill="#001F4D"/>
<path d="M17.6205 18.0156H14.4929C14.061 18.0156 13.7109 18.3657 13.7109 18.7975C13.7109 19.2294 14.061 19.5795 14.4929 19.5795H17.6205C18.0523 19.5795 18.4024 19.2294 18.4024 18.7975C18.4024 18.3657 18.0523 18.0156 17.6205 18.0156Z" fill="#001F4D"/>
<path d="M9.1752 18.0156H6.04754C5.61571 18.0156 5.26562 18.3657 5.26562 18.7975C5.26562 19.2294 5.61571 19.5795 6.04754 19.5795H9.1752C9.60703 19.5795 9.95711 19.2294 9.95711 18.7975C9.95711 18.3657 9.60703 18.0156 9.1752 18.0156Z" fill="#001F4D"/>
</svg>
