<svg width="35" height="35" viewBox="0 0 35 35" fill="none" xmlns="http://www.w3.org/2000/svg">
<path d="M16.1498 3.83987C16.6164 2.60904 18.3825 2.60904 18.8506 3.83987L21.8693 12.202C22.0808 12.7561 22.6189 13.1251 23.2198 13.1251H30.6383C32.0091 13.1251 32.6071 14.8313 31.5293 15.667L26.2502 20.4167C26.0137 20.5985 25.8409 20.8506 25.7565 21.1367C25.6722 21.4228 25.6806 21.7282 25.7806 22.0092L27.7085 30.1803C28.1781 31.4928 26.6585 32.6201 25.5093 31.8122L18.3387 27.2622C18.0932 27.0896 17.8003 26.997 17.5002 26.997C17.2 26.997 16.9072 27.0896 16.6616 27.2622L9.49101 31.8122C8.3433 32.6201 6.82226 31.4913 7.29184 30.1803L9.21976 22.0092C9.31977 21.7282 9.32819 21.4228 9.24383 21.1367C9.15947 20.8506 8.98665 20.5985 8.75017 20.4167L3.47101 15.667C2.39184 14.8313 2.99267 13.1251 4.36059 13.1251H11.7791C12.0712 13.1261 12.3567 13.0383 12.5979 12.8735C12.839 12.7086 13.0244 12.4745 13.1295 12.202L16.1483 3.83987H16.1498Z" stroke="black" stroke-width="2" stroke-linecap="round" stroke-linejoin="round"/>
</svg>
