<svg width="23" height="40" viewBox="0 0 23 40" fill="none" xmlns="http://www.w3.org/2000/svg">
<path d="M22.1207 0.907656C22.6831 1.47024 22.999 2.23316 22.999 3.02866C22.999 3.82415 22.6831 4.58707 22.1207 5.14966L7.27066 19.9997L22.1207 34.8497C22.6671 35.4155 22.9695 36.1733 22.9627 36.9599C22.9558 37.7465 22.6403 38.4989 22.0841 39.0551C21.5279 39.6113 20.7754 39.9268 19.9889 39.9337C19.2023 39.9405 18.4445 39.6381 17.8787 39.0917L0.907656 22.1207C0.345243 21.5581 0.0292969 20.7951 0.0292969 19.9997C0.0292969 19.2042 0.345243 18.4412 0.907656 17.8787L17.8787 0.907656C18.4412 0.345243 19.2042 0.0292969 19.9997 0.0292969C20.7951 0.0292969 21.5581 0.345243 22.1207 0.907656Z" fill="#E8E8E8"/>
</svg>
