<svg width="23" height="23" viewBox="0 0 23 23" fill="none" xmlns="http://www.w3.org/2000/svg">
<path d="M10.5347 1.74287C10.868 0.863704 12.1295 0.863704 12.4639 1.74287L14.6201 7.71579C14.7712 8.11162 15.1555 8.37516 15.5847 8.37516H20.8837C21.8628 8.37516 22.2899 9.59391 21.5201 10.1908L17.7493 13.5835C17.5804 13.7133 17.4569 13.8934 17.3967 14.0977C17.3364 14.3021 17.3424 14.5203 17.4139 14.721L18.791 20.5575C19.1264 21.495 18.041 22.3002 17.2201 21.7231L12.0982 18.4731C11.9228 18.3498 11.7137 18.2837 11.4993 18.2837C11.2849 18.2837 11.0757 18.3498 10.9003 18.4731L5.77845 21.7231C4.95866 22.3002 3.8722 21.4939 4.20762 20.5575L5.5847 14.721C5.65614 14.5203 5.66216 14.3021 5.6019 14.0977C5.54164 13.8934 5.4182 13.7133 5.24929 13.5835L1.47845 10.1908C0.70762 9.59391 1.13679 8.37516 2.11387 8.37516H7.41283C7.62147 8.37586 7.8254 8.31319 7.99764 8.19544C8.16988 8.0777 8.30231 7.91044 8.37741 7.71579L10.5337 1.74287H10.5347Z" stroke="black" stroke-width="2" stroke-linecap="round" stroke-linejoin="round"/>
</svg>
