<svg width="44" height="35" viewBox="0 0 44 35" fill="none" xmlns="http://www.w3.org/2000/svg">
<path d="M42.9 24.0625H41.8V16.6729C41.8 15.8047 41.4494 14.9707 40.8306 14.3555L33.9625 7.52637C33.3438 6.91113 32.505 6.5625 31.6319 6.5625H28.6V3.28125C28.6 1.46973 27.1219 0 25.3 0H3.3C1.47813 0 0 1.46973 0 3.28125V25.1562C0 26.9678 1.47813 28.4375 3.3 28.4375H4.4C4.4 32.0605 7.35625 35 11 35C14.6438 35 17.6 32.0605 17.6 28.4375H26.4C26.4 32.0605 29.3563 35 33 35C36.6438 35 39.6 32.0605 39.6 28.4375H42.9C43.505 28.4375 44 27.9453 44 27.3438V25.1562C44 24.5547 43.505 24.0625 42.9 24.0625ZM11 31.7188C9.17813 31.7188 7.7 30.249 7.7 28.4375C7.7 26.626 9.17813 25.1562 11 25.1562C12.8219 25.1562 14.3 26.626 14.3 28.4375C14.3 30.249 12.8219 31.7188 11 31.7188ZM33 31.7188C31.1781 31.7188 29.7 30.249 29.7 28.4375C29.7 26.626 31.1781 25.1562 33 25.1562C34.8219 25.1562 36.3 26.626 36.3 28.4375C36.3 30.249 34.8219 31.7188 33 31.7188ZM38.5 17.5H28.6V9.84375H31.6319L38.5 16.6729V17.5Z" fill="#022869"/>
</svg>
