<svg width="105" height="105" viewBox="0 0 105 105" fill="none" xmlns="http://www.w3.org/2000/svg">
<path d="M98.6119 44.0323L57.0811 24.0365C59.4131 22.5259 60.9677 19.9144 60.9677 16.9355V13.3079C63.8823 12.5509 66.0484 9.92081 66.0484 6.77419C66.0484 3.03823 63.0102 0 59.2742 0C55.5382 0 52.5 3.03823 52.5 6.77419C52.5 9.92081 54.666 12.5509 57.5806 13.3079V16.9355C57.5806 19.7366 55.3011 22.0161 52.5 22.0161C49.6989 22.0161 47.4194 19.7366 47.4194 16.9355V13.5484H44.0323V16.9355C44.0323 19.9144 45.5869 22.5259 47.919 24.0365L6.38806 44.0323H0V105H11.8548H13.5484H91.4516H93.1452H105V44.0323H98.6119ZM55.8871 6.77419C55.8871 4.90621 57.4062 3.3871 59.2742 3.3871C61.1422 3.3871 62.6613 4.90621 62.6613 6.77419C62.6613 8.64218 61.1422 10.1613 59.2742 10.1613C57.4062 10.1613 55.8871 8.64218 55.8871 6.77419ZM10.1613 101.613H8.46774V98.2258H5.08065V101.613H3.3871V47.4194H5.08065V50.8065H8.46774V47.4194H10.1613V101.613ZM13.5484 50.8065H16.9355V91.4516H13.5484V50.8065ZM91.4516 101.613H13.5484V94.8387H91.4516V101.613ZM20.3226 91.4516V50.8065H23.7097V91.4516H20.3226ZM27.0968 91.4516V50.8065H30.4839V91.4516H27.0968ZM33.871 91.4516V50.8065H37.2581V91.4516H33.871ZM40.6452 91.4516V50.8065H44.0323V91.4516H40.6452ZM47.4194 91.4516V50.8065H50.8065V91.4516H47.4194ZM54.1936 91.4516V50.8065H57.5806V91.4516H54.1936ZM60.9677 91.4516V50.8065H64.3548V91.4516H60.9677ZM67.7419 91.4516V50.8065H71.129V91.4516H67.7419ZM74.5161 91.4516V50.8065H77.9032V91.4516H74.5161ZM81.2903 91.4516V50.8065H84.6774V91.4516H81.2903ZM91.4516 91.4516H88.0645V50.8065H91.4516V91.4516ZM91.4516 47.4194H13.5484V44.3439L52.5 25.5895L91.4516 44.3439V47.4194ZM101.613 101.613H99.9194V98.2258H96.5323V101.613H94.8387V47.4194H96.5323V50.8065H99.9194V47.4194H101.613V101.613Z" fill="black"/>
<path d="M30.4855 96.5322H20.3242V99.9193H30.4855V96.5322Z" fill="black"/>
<path d="M84.6769 96.5322H74.5156V99.9193H84.6769V96.5322Z" fill="black"/>
</svg>
