<svg width="21" height="35" viewBox="0 0 21 35" fill="none" xmlns="http://www.w3.org/2000/svg">
<path d="M1.75 33.9062V31.1314C1.75 30.0865 2.04935 29.0635 2.61263 28.1834L8.69531 18.6792C9.15537 17.9604 9.15558 17.04 8.69559 16.3212C6.62942 13.0929 2.61256 6.81652 2.61256 6.81652C2.04935 5.93647 1.75 4.9134 1.75 3.86859V1.09375H19.25V3.86859C19.25 4.91347 18.9507 5.93647 18.3874 6.81652L12.3047 16.3208C11.8446 17.0396 11.8444 17.96 12.3045 18.6788C14.3706 21.9071 18.3875 28.1834 18.3875 28.1834C18.9507 29.0635 19.25 30.0865 19.25 31.1314V33.9062" fill="#B2F3FF"/>
<path d="M1.75 3.86859C1.75 4.91347 2.04935 5.93647 2.61256 6.81652C2.61256 6.81652 6.62942 13.0929 8.69552 16.3212C9.15558 17.0401 9.15537 17.9604 8.69531 18.6792L2.61263 28.1834C2.04935 29.0635 1.75 30.0865 1.75 31.1314V33.9062H10.5V1.09375H1.75V3.86859Z" fill="#51DBFF"/>
<path d="M19.7969 2.1875H1.20312C0.599033 2.1875 0.109375 1.69784 0.109375 1.09375C0.109375 0.489658 0.599033 0 1.20312 0H19.7969C20.401 0 20.8906 0.489658 20.8906 1.09375C20.8906 1.69784 20.401 2.1875 19.7969 2.1875Z" fill="#022869"/>
<path d="M19.7969 35H1.20312C0.599033 35 0.109375 34.5103 0.109375 33.9062C0.109375 33.3022 0.599033 32.8125 1.20312 32.8125H19.7969C20.401 32.8125 20.8906 33.3022 20.8906 33.9062C20.8906 34.5103 20.401 35 19.7969 35Z" fill="#022869"/>
<path d="M17.4069 29.9033C17.3081 29.6109 17.1735 29.3299 17.0053 29.0677L13.613 23.7677C13.5126 23.6107 13.339 23.5156 13.1526 23.5156H7.84734C7.66093 23.5156 7.48736 23.6107 7.38701 23.7677L3.99413 29.0677C3.82644 29.3299 3.69184 29.6108 3.59307 29.9033C3.53646 30.0701 3.56422 30.2539 3.66676 30.397C3.7693 30.5402 3.93486 30.6251 4.11109 30.6251H16.889C17.0652 30.6251 17.2308 30.5402 17.3333 30.397C17.4358 30.2539 17.4635 30.0702 17.4069 29.9033Z" fill="#FFEEBB"/>
<path d="M10.0397 15.3774C10.1401 15.5344 10.3136 15.6295 10.5 15.6295C10.6863 15.6295 10.86 15.5344 10.9603 15.3774L13.2632 11.7791C13.3711 11.6109 13.3786 11.397 13.2824 11.2219C13.1869 11.0465 13.0026 10.9375 12.8028 10.9375H8.19709C7.99735 10.9375 7.81312 11.0465 7.71749 11.2219C7.62137 11.3971 7.62882 11.6109 7.73669 11.7791L10.0397 15.3774Z" fill="#FFEEBB"/>
<path d="M8.19722 10.9375C7.99747 10.9375 7.81324 11.0465 7.71761 11.2219C7.62149 11.3971 7.62894 11.6109 7.73682 11.7791L10.0397 15.3774C10.1401 15.5344 10.3137 15.6295 10.5 15.6295V10.9375H8.19722Z" fill="#F7AA6B"/>
<path d="M10.5 23.5156H7.84734C7.66093 23.5156 7.48736 23.6107 7.38701 23.7677L3.99413 29.0677C3.82644 29.3299 3.69184 29.6108 3.59307 29.9033C3.53646 30.0701 3.56422 30.2539 3.66676 30.397C3.7693 30.5402 3.93486 30.6251 4.11109 30.6251H10.5V23.5156Z" fill="#F7AA6B"/>
<path d="M10.5 0H1.20312C0.599102 0 0.109375 0.489658 0.109375 1.09375C0.109375 1.69777 0.599102 2.1875 1.20312 2.1875H10.5V0Z" fill="#001F4D"/>
<path d="M10.5 32.8125H1.20312C0.599102 32.8125 0.109375 33.3022 0.109375 33.9062C0.109375 34.5103 0.599102 35 1.20312 35H10.5V32.8125Z" fill="#001F4D"/>
</svg>
