<svg width="35" height="35" viewBox="0 0 35 35" fill="none" xmlns="http://www.w3.org/2000/svg">
<path d="M31.7188 35H3.28125C1.46891 35 0 33.5311 0 31.7188V9.84375C0 9.24 0.49 8.75 1.09375 8.75H33.9062C34.51 8.75 35 9.24 35 9.84375V31.7188C35 33.5311 33.5311 35 31.7188 35Z" fill="#001F4D"/>
<path d="M29.5312 35H3.28125C1.46891 35 0 33.5311 0 31.7188V9.84375C0 9.24 0.49 8.75 1.09375 8.75H31.7188C32.3225 8.75 32.8125 9.24 32.8125 9.84375V31.7188C32.8125 33.5311 31.3436 35 29.5312 35Z" fill="#367AF5"/>
<path d="M25.1563 8.75H20.7813V3.28125C20.7813 2.67859 20.3055 2.1875 19.7225 2.1875H15.4514C14.8685 2.1875 14.3927 2.67859 14.3927 3.28125V8.75H10.0177V3.28125C10.0177 1.47219 11.4735 0 13.2639 0H21.91C23.7005 0 25.1563 1.47219 25.1563 3.28125V8.75Z" fill="black"/>
<path d="M23.0037 8.75H20.8162V3.28125C20.8162 2.67859 20.3404 2.1875 19.7564 2.1875H13.2989C12.7159 2.1875 12.2401 2.67859 12.2401 3.28125V8.75H10.0526V3.28125C10.0526 1.47219 11.5084 0 13.2989 0H19.7564C21.5468 0 23.0037 1.47219 23.0037 3.28125V8.75Z" fill="#777777"/>
</svg>
