<svg width="18" height="18" viewBox="0 0 18 18" fill="none" xmlns="http://www.w3.org/2000/svg">
<circle cx="9" cy="9" r="9" fill="#FB0000"/>
<path d="M9 3.375C8.40326 3.375 7.83097 3.60464 7.40901 4.01342C6.98705 4.42219 6.75 4.9766 6.75 5.55469C6.75 7.19719 7.45084 9.24019 7.80271 10.1666C7.89366 10.403 8.05742 10.6065 8.27179 10.7497C8.48616 10.8929 8.74079 10.9688 9.00116 10.9671C9.52606 10.9671 10.0109 10.6622 10.199 10.1694C10.5509 9.24694 11.25 7.21406 11.25 5.55469C11.25 4.9766 11.0129 4.42219 10.591 4.01342C10.169 3.60464 9.59674 3.375 9 3.375ZM9.00058 11.8114C8.61544 11.8114 8.24606 11.9596 7.97372 12.2234C7.70139 12.4873 7.54839 12.8451 7.54839 13.2182C7.54839 13.5913 7.70139 13.9491 7.97372 14.213C8.24606 14.4768 8.61544 14.625 9.00058 14.625C9.38573 14.625 9.7551 14.4768 10.0274 14.213C10.2998 13.9491 10.4528 13.5913 10.4528 13.2182C10.4528 12.8451 10.2998 12.4873 10.0274 12.2234C9.7551 11.9596 9.38573 11.8114 9.00058 11.8114Z" fill="white"/>
</svg>
