<svg width="19" height="19" viewBox="0 0 19 19" fill="none" xmlns="http://www.w3.org/2000/svg">
<circle cx="9.5" cy="9.5" r="9.5" fill="#001F4D"/>
<path d="M9.97705 11.9971H8.61475C8.61963 11.5283 8.66113 11.145 8.73926 10.8472C8.82227 10.5444 8.95654 10.2686 9.14209 10.0195C9.32764 9.77051 9.57422 9.4873 9.88184 9.16992C10.1064 8.94043 10.3115 8.72559 10.4971 8.52539C10.6875 8.32031 10.8413 8.10059 10.9585 7.86621C11.0757 7.62695 11.1343 7.34131 11.1343 7.00928C11.1343 6.67236 11.0732 6.38184 10.9512 6.1377C10.834 5.89355 10.6582 5.70557 10.4238 5.57373C10.1943 5.44189 9.90869 5.37598 9.56689 5.37598C9.28369 5.37598 9.01514 5.42725 8.76123 5.52979C8.50732 5.63232 8.30225 5.79102 8.146 6.00586C7.98975 6.21582 7.90918 6.4917 7.9043 6.8335H6.54932C6.55908 6.28174 6.6958 5.80811 6.95947 5.4126C7.22803 5.01709 7.58936 4.71436 8.04346 4.50439C8.49756 4.29443 9.00537 4.18945 9.56689 4.18945C10.187 4.18945 10.7144 4.30176 11.1489 4.52637C11.5884 4.75098 11.9229 5.07324 12.1523 5.49316C12.3818 5.9082 12.4966 6.40137 12.4966 6.97266C12.4966 7.41211 12.4062 7.81738 12.2256 8.18848C12.0498 8.55469 11.8228 8.89893 11.5444 9.22119C11.2661 9.54346 10.9707 9.85107 10.6582 10.144C10.3896 10.3931 10.209 10.6738 10.1162 10.9863C10.0234 11.2988 9.97705 11.6357 9.97705 11.9971ZM8.55615 14.3188C8.55615 14.0991 8.62451 13.9136 8.76123 13.7622C8.89795 13.6108 9.0957 13.5352 9.35449 13.5352C9.61816 13.5352 9.81836 13.6108 9.95508 13.7622C10.0918 13.9136 10.1602 14.0991 10.1602 14.3188C10.1602 14.5288 10.0918 14.7095 9.95508 14.8608C9.81836 15.0122 9.61816 15.0879 9.35449 15.0879C9.0957 15.0879 8.89795 15.0122 8.76123 14.8608C8.62451 14.7095 8.55615 14.5288 8.55615 14.3188Z" fill="white"/>
</svg>
