<svg width="19" height="15" viewBox="0 0 19 15" fill="none" xmlns="http://www.w3.org/2000/svg">
<path fill-rule="evenodd" clip-rule="evenodd" d="M0 7.5C0 6.67157 0.223858 6 0.5 6H18.5C18.7761 6 19 6.67157 19 7.5C19 8.32843 18.7761 9 18.5 9H0.5C0.223858 9 0 8.32843 0 7.5Z" fill="white"/>
<path fill-rule="evenodd" clip-rule="evenodd" d="M0 1.5C0 0.671573 0.223858 0 0.5 0H18.5C18.7761 0 19 0.671573 19 1.5C19 2.32843 18.7761 3 18.5 3H0.5C0.223858 3 0 2.32843 0 1.5Z" fill="white"/>
<path fill-rule="evenodd" clip-rule="evenodd" d="M0 13.5C0 12.6716 0.223858 12 0.5 12H18.5C18.7761 12 19 12.6716 19 13.5C19 14.3284 18.7761 15 18.5 15H0.5C0.223858 15 0 14.3284 0 13.5Z" fill="white"/>
</svg>
