<svg width="23" height="40" viewBox="0 0 23 40" fill="none" xmlns="http://www.w3.org/2000/svg">
<path d="M0.879345 39.0923C0.316931 38.5298 0.000984192 37.7668 0.000984192 36.9713C0.000984192 36.1759 0.316931 35.4129 0.879345 34.8503L15.7293 20.0003L0.879345 5.15034C0.33287 4.58454 0.0304871 3.82673 0.037323 3.04014C0.044157 2.25355 0.359665 1.50111 0.915888 0.944885C1.47211 0.38866 2.22455 0.0731583 3.01114 0.0663223C3.79773 0.0594864 4.55554 0.36187 5.12134 0.908344L22.0923 17.8793C22.6548 18.4419 22.9707 19.2049 22.9707 20.0003C22.9707 20.7958 22.6548 21.5588 22.0923 22.1213L5.12134 39.0923C4.55876 39.6548 3.79584 39.9707 3.00034 39.9707C2.20485 39.9707 1.44193 39.6548 0.879345 39.0923Z" fill="#367AF5"/>
</svg>
