<svg width="68" height="41" viewBox="0 0 68 41" fill="none" xmlns="http://www.w3.org/2000/svg">
<rect x="0.403846" y="0.403846" width="67.1923" height="40.1923" rx="3.63462" fill="white" stroke="black" stroke-width="0.807692"/>
<g clip-path="url(#clip0_788_7259)">
<path d="M34.6175 16.7747C34.5846 19.2908 36.9266 20.6948 38.6908 21.5296C40.5035 22.3861 41.1123 22.9354 41.1051 23.7014C41.0916 24.8736 39.6593 25.391 38.3189 25.4111C35.9805 25.4463 34.6208 24.798 33.5399 24.3077L32.6975 28.1354C33.782 28.6207 35.7901 29.0439 37.8725 29.0625C42.7606 29.0625 45.9586 26.7194 45.9759 23.0866C45.995 18.476 39.4086 18.2208 39.4536 16.16C39.4691 15.5352 40.0831 14.8683 41.4286 14.6988C42.0947 14.6131 43.9331 14.5476 46.0175 15.4797L46.8356 11.7763C45.7147 11.3799 44.274 11.0004 42.4803 11.0004C37.8795 11.0004 34.6436 13.3754 34.6175 16.7747ZM54.6967 11.3194C53.8041 11.3194 53.0519 11.825 52.7162 12.6009L45.7338 28.7905H50.6183L51.5903 26.1819H57.5591L58.123 28.7905H62.4281L58.6713 11.3194H54.6967ZM55.38 16.039L56.7896 22.5996H52.9291L55.38 16.039ZM28.6952 11.3196L24.845 28.7903H29.4996L33.348 11.3192H28.6952V11.3196ZM21.8095 11.3192L16.9649 23.2109L15.0051 13.0999C14.7751 11.9712 13.8671 11.3194 12.8586 11.3194H4.93905L4.82812 11.8267C6.45397 12.1693 8.30122 12.7219 9.42037 13.3131C10.1053 13.6743 10.3006 13.99 10.5256 14.8482L14.2374 28.7905H19.1561L26.6972 11.3194H21.8095" fill="url(#paint0_linear_788_7259)"/>
</g>
<defs>
<linearGradient id="paint0_linear_788_7259" x1="31.3091" y1="29.4248" x2="31.8169" y2="10.874" gradientUnits="userSpaceOnUse">
<stop stop-color="#222357"/>
<stop offset="1" stop-color="#254AA5"/>
</linearGradient>
<clipPath id="clip0_788_7259">
<rect width="57.6" height="18.1346" fill="white" transform="translate(4.82812 11)"/>
</clipPath>
</defs>
</svg>
